<?xml version="1.0" encoding="UTF-8"?>
<svg width="143px" height="125px" viewBox="0 0 143 125" version="1.1" xmlns="http://www.w3.org/2000/svg" xmlns:xlink="http://www.w3.org/1999/xlink">
    <!-- Generator: sketchtool 45.2 (43514) - http://www.bohemiancoding.com/sketch -->
    <title>4EEFEEFD-E43A-46A1-8A7E-816C4769679D</title>
    <desc>Created with sketchtool.</desc>
    <defs></defs>
    <g id="Page-1" stroke="none" stroke-width="1" fill="none" fill-rule="evenodd">
        <g id="Main" transform="translate(-531.000000, -49.000000)" fill-rule="nonzero" fill="#231F20">
            <g id="herschel-logo" transform="translate(531.000000, 49.000000)">
                <path d="M10.9006181,61.9853011 C13.1579389,61.9853011 15.8820268,60.8438409 18.6061146,61.0773666 C19.0469976,59.935622 19.0469976,58.8200458 19.5140491,57.67887 C19.9552165,56.3297681 20.6557938,54.9544977 21.0966768,53.6056803 C21.3302025,53.1645129 21.3302025,52.4639356 21.5378442,52.0230526 C21.7713699,51.5821697 21.7713699,51.3486439 21.9787271,50.881308 C21.9787271,50.6480667 22.2122529,50.440425 22.2122529,50.2068992 C22.2122529,49.9736579 22.2122529,49.7657318 22.2122529,49.5324905 C22.2122529,49.2989648 22.4457786,49.0913231 22.4457786,48.8577974 C22.6793044,48.4169144 22.6793044,47.7160527 22.8866616,47.2754542 C23.1201874,46.3675197 23.5613548,45.6928265 23.7948805,44.7846076 C24.0284063,43.8769576 24.2357635,43.2022644 24.4692892,42.2940455 C24.702815,41.3858266 25.1439824,40.9449436 25.3772237,40.0367247 C25.8183911,39.1287902 25.8183911,37.9870455 26.2851582,37.0791111 C26.7263256,35.9376508 26.9598514,35.0294319 27.1930927,33.9138558 C27.6342601,32.0977024 28.5421946,30.281549 29.4504135,28.46568 C29.8915809,27.3242198 30.5918737,26.2083592 30.7995154,24.8333732 C30.7995154,24.3924903 31.0330411,23.9254388 31.0330411,23.4842714 C31.2665669,23.043104 31.4742085,22.1351695 31.9409756,22.1351695 C32.6156688,21.9016437 33.757129,23.4842714 34.1982964,23.9513229 C34.4318222,24.1848486 34.6391794,24.626016 34.8727051,24.8592573 C35.1062309,25.0927831 35.3138725,25.5339505 35.3138725,25.7671918 C35.3138725,26.2080748 35.3138725,26.441885 35.3138725,26.9089365 C35.0803468,27.5833452 34.8727051,28.4912797 34.6391794,29.1659729 C34.4056536,29.6071403 34.4056536,29.840666 34.1982964,30.3077175 C33.757129,31.6568194 33.2903619,32.7982796 32.8491945,33.9400243 C32.1745014,35.7561777 31.5000926,37.3385209 30.7995154,39.1549587 C30.358348,40.296419 30.1248222,41.6455209 29.6580551,42.7872655 C29.2168877,44.136083 28.7498362,45.511069 28.3089533,47.093981 C28.0754275,48.2357257 27.6342601,49.1433757 27.167493,50.2592363 C26.7004415,51.3748125 26.4927999,52.3089155 26.0257484,53.4244916 C25.5848654,55.240645 24.6766465,57.0567984 24.209595,58.8726673 C24.209595,59.3138348 23.9760692,59.5473605 23.9760692,60.014412 C23.9760692,60.2476533 23.7425434,60.6888207 23.7425434,60.9223465 C24.8840037,61.1555878 26.2331056,61.1555878 27.3748502,61.1555878 C27.8157332,60.2476533 28.0495434,59.5732446 28.5163105,58.6650257 C29.1910036,57.523281 29.8654124,55.9409378 31.0068726,54.5918359 C31.2403983,54.3583102 31.44804,54.3583102 31.6815657,54.1506685 C32.5895002,53.0089238 33.4977191,52.1009894 35.0803468,51.4265806 C35.3138725,51.1930549 36.221807,50.9854132 36.4294487,50.9854132 C37.3376676,50.9854132 37.778835,52.1271579 38.4791278,52.5677564 C38.9202952,52.8012822 39.3870623,53.0089238 39.8282297,53.4759754 C40.2693971,53.7092167 40.7361642,54.1503841 41.1773316,54.6174356 C41.4108573,55.058603 41.8520248,55.7591803 41.8520248,56.2000632 C41.8520248,56.8744719 41.618499,57.5491651 41.4108573,58.457384 C41.1773316,59.8062015 41.1773316,60.7144204 40.5026384,61.6226393 C40.0617555,62.0635223 39.3611782,62.297048 38.9202952,62.7640995 C38.6867695,62.9976253 38.4791278,63.2052669 38.0123607,63.2052669 C37.5711933,63.4385083 37.3376676,63.6464344 36.8706161,63.6464344 C36.4294487,63.8796757 35.9626816,63.8796757 35.5215142,64.0876018 C34.6135797,64.3208431 33.7053608,64.7620105 32.7974263,64.9952518 C32.5639006,64.9952518 31.2147987,65.2287776 31.2147987,65.2287776 C30.7739157,67.2784567 31.2147987,69.7690188 32.3565434,71.1181207 C33.0312365,71.3516465 34.1726967,70.8848794 34.8471055,70.443712 C35.7550399,70.0025446 36.6629744,69.0946101 37.3376676,68.3940328 C39.153821,66.8116896 40.5026384,64.9952518 41.8779088,62.9458571 C42.1114346,62.5046897 42.3190763,61.8041124 42.7858433,61.3632295 C43.0193691,61.1299881 43.0193691,61.1299881 43.0193691,60.9223465 C43.2528948,60.014412 43.6940622,59.3397188 44.1608293,58.6650257 C44.6019967,57.990617 45.0690482,56.8488723 45.0690482,56.1741791 C45.302574,55.0327189 44.6278808,53.683617 45.0690482,52.5418723 C45.302574,52.1007049 45.5099312,51.8674636 45.7437414,51.4004121 C45.9772671,51.1668864 45.9772671,50.9592447 45.9772671,50.7257189 C45.9772671,50.0513102 46.8852016,50.0513102 47.326369,50.2845515 C47.7675364,50.5180773 48.0010622,51.4262962 48.4681137,51.6336534 C48.9092811,52.0748208 49.3760482,52.5415879 49.6095739,52.7753981 C49.8430997,53.4498068 49.6095739,54.1245 50.0507413,54.5915515 C51.1922016,54.3580257 51.8666103,53.683617 52.7748292,53.9171428 C53.2157122,53.9171428 53.6827637,54.3580257 54.3574569,54.5915515 C54.7983398,54.8250772 55.4989171,54.8250772 55.9398001,55.2659602 C56.1733258,55.499486 56.3809675,55.9406534 56.6144932,56.4077049 C56.848019,57.0821136 57.0553762,57.9903325 57.0553762,58.898267 C57.0553762,59.8062015 56.3809675,60.2473689 56.1474417,60.7144204 C53.8901209,62.7640995 52.074252,65.0214203 51.166033,68.2122753 C51.166033,68.445801 50.9325073,69.1204942 50.9325073,69.3540199 C51.166033,69.5875457 51.8404418,68.9128525 52.0739675,68.6796112 C52.3074933,68.4460855 52.3074933,68.4460855 52.5148505,68.2381594 C52.9560179,67.7972764 53.422785,67.3302249 54.0974781,66.8893419 C55.0054126,65.9814075 56.1471573,65.0731885 56.821566,63.9317283 C56.1471573,62.3493851 57.0550917,60.9743991 58.4041936,62.1155749 C59.3121281,61.2076404 59.7532955,60.0658958 60.66123,58.9503196 C60.8947557,58.5091522 61.3359232,58.2759109 61.5691645,57.8088594 C61.8026902,57.3415235 62.0103319,56.9009249 62.2438576,56.4597575 C62.4773834,56.0185901 62.9185508,55.5515386 63.1520766,54.8771299 C63.3856023,54.4359625 63.8264853,53.9691954 64.060011,53.2947867 C64.2935368,53.0612609 64.2935368,52.8536193 64.5011784,52.3868522 C64.5011784,52.1533264 64.7347042,51.9456848 64.7347042,51.7124435 C64.7347042,51.4786333 64.7347042,51.0377503 64.7347042,50.8042246 C64.7347042,50.5709832 64.7347042,50.1298158 64.7347042,49.8962901 C64.7347042,49.6630488 64.7347042,49.2218814 64.7347042,48.9883556 C64.7347042,48.7551143 65.1758716,48.7551143 65.4093974,48.7551143 C65.4093974,48.7551143 65.4093974,48.5215885 65.4093974,48.3139469 L65.6429231,48.0804211 C65.8764489,47.8471798 66.0840905,47.8471798 66.3176163,47.8471798 C66.7584992,47.8471798 67.2255507,48.0804211 67.6667182,48.5215885 C67.9002439,48.7551143 67.9002439,49.1962817 67.9002439,49.429523 C68.5749371,50.1039317 69.4828716,51.0118662 69.4828716,52.1536109 C69.4828716,52.5947783 69.2493458,53.0615454 69.0417041,53.2953556 C68.8081784,54.8776988 69.0417041,56.9276623 69.4828716,58.5100055 C69.9237545,60.0926332 70.1575647,62.1423123 70.1575647,63.9584657 C70.5984477,63.72494 70.8319734,63.2837726 71.0654992,62.8167211 C71.5066666,61.9087866 72.2072439,61.0005677 72.6478424,60.0926332 C73.0890098,58.9508885 73.5557769,58.042954 74.23047,57.1350196 C74.4637113,56.6938521 74.9048788,56.2270851 75.3722147,55.7862021 C76.0466234,54.6444574 76.7210321,53.736523 77.4216094,52.8285885 C77.8627768,52.3874211 78.5633541,51.6868438 79.2377628,51.2459608 C79.4712886,51.0124351 79.912456,50.8047934 80.1456973,50.5715521 C80.379223,50.3380264 80.5868647,49.896859 81.0536318,49.896859 C81.2871575,49.6636177 81.7280405,49.6636177 81.9615662,49.6636177 C82.195092,49.6636177 82.6362594,49.4300919 82.8695007,49.4300919 C83.5441939,49.4300919 84.2186026,49.1968506 84.6856541,49.6636177 C85.1268215,49.896859 85.8273988,50.3380264 86.2682817,50.8050779 C86.5018075,51.2462453 86.9426905,51.9468226 87.4100264,52.1541798 C87.6432677,52.1541798 87.8509094,52.1541798 87.8509094,52.1541798 C88.0844351,52.1541798 88.5256025,51.920654 88.7588439,52.1541798 C88.9923696,52.3877055 89.2000113,52.5953472 89.2000113,53.0621142 C89.2000113,53.7368074 89.2000113,54.4112161 88.96677,54.8782676 C88.96677,55.1117934 88.7332442,55.319435 88.7332442,55.5526764 C88.7332442,55.7864866 88.4997185,55.9938438 88.2920768,56.2273695 C88.0588355,56.4608953 87.8509094,56.6685369 87.8509094,57.135304 C87.6176681,57.5764714 87.6176681,57.8099972 87.4100264,58.2770487 C87.1765007,58.7182161 86.968859,58.9514574 86.7353333,59.4185089 C86.5020919,60.0932021 86.2941658,60.5602536 85.1527056,60.0932021 C84.9194643,59.8596763 84.4782969,59.6520347 84.2447711,59.4185089 C84.0115298,59.1852676 83.8038882,59.1852676 83.5703624,58.7441002 C82.8959537,59.1852676 82.8959537,58.9773415 82.8959537,58.5105744 C82.8959537,58.069407 82.6624279,57.8361657 82.6624279,57.6026399 C82.6624279,57.161757 82.8959537,56.9282312 82.8959537,56.6947055 C82.8959537,56.4614642 83.129195,56.2538225 82.8959537,56.0202967 C82.6624279,55.7870554 82.2212605,56.0202967 81.9880192,56.0202967 C81.313326,56.2538225 81.0798003,56.9282312 80.6389173,57.3693986 C79.9642242,58.0438074 79.2898154,58.7185005 78.8227639,59.626435 C78.5892382,60.0676024 78.3815965,60.5346539 78.1480708,60.9758213 C77.9148295,61.4167043 77.473662,61.8834714 77.473662,62.3246388 C77.0324946,63.9072664 76.7989689,65.0490111 77.9148295,66.1904713 C78.1480708,66.4239971 78.3559969,66.4239971 78.5892382,66.4239971 C78.8227639,66.4239971 78.8227639,66.6572384 79.0304056,66.6572384 C79.471573,66.8907641 79.9383401,67.0984058 80.3795075,67.0984058 C81.7283249,66.86488 83.7780041,65.9566611 84.9197487,65.2822524 C85.3609161,65.0490111 85.8276832,64.3743179 86.5023764,64.1405077 C86.9432593,63.6993403 87.6438366,63.2325732 87.8511938,62.7914058 C87.8511938,62.5581645 88.0847196,62.3505229 88.0847196,62.1169971 C88.525887,61.2090626 88.9926541,60.3008437 89.2261798,59.1593835 C89.4597056,58.4849748 89.6673472,57.810566 89.900873,57.3432301 C90.1343987,57.1099888 90.1343987,56.6688214 90.1343987,56.4352956 C90.36764,55.7608869 90.8088074,55.2938354 91.0423332,54.6191422 C91.4835006,53.9447335 91.7167419,53.036799 92.1837934,52.3618214 C92.4173192,51.920654 92.6249608,51.4538869 92.8584866,51.0127195 C93.2993696,50.1047851 93.5328953,49.4303763 93.7661366,48.5221574 C93.9996624,48.08099 93.9996624,47.6142229 94.207304,47.3804127 C94.4408298,46.9392453 94.6484715,46.706004 94.6484715,46.2389525 C94.6484715,45.7977851 94.8819972,45.5642594 94.8819972,45.0972078 C95.115523,44.6563249 95.3231646,44.4227991 95.3231646,43.9554632 C95.764332,43.0475287 96.2310991,41.9060685 96.6722665,40.998134 C96.9055078,40.3234408 97.1131495,39.6490321 97.5799165,38.9484548 C98.0210839,38.0405204 98.487851,36.8987757 98.9290184,35.7831996 C99.3701858,35.1087908 99.6037116,34.6417393 99.8372373,33.7338049 C100.070479,33.0591117 100.511646,32.5920602 100.978698,31.917367 C101.419865,31.2429583 101.419865,30.3350238 101.886632,29.4268049 C102.327799,28.7521117 102.561041,28.077703 103.028092,27.1694841 C103.261902,26.4950754 103.46926,25.8203822 103.936311,24.9124477 C104.169553,24.4715648 104.61072,23.3298201 105.077771,23.0962943 C106.219516,22.6554114 107.335092,24.4453962 107.801859,25.3536152 C108.035385,25.5871409 108.243027,26.0283083 108.243027,26.4950754 C108.243027,27.1694841 108.243027,27.8441773 108.009785,28.5444701 C107.568618,30.5941492 106.660684,32.1767769 105.960106,33.7594045 C104.143953,36.9246598 102.327799,40.1160836 100.511931,43.2810545 C100.278405,43.7222219 99.8375218,44.1889889 99.603996,44.6301563 C99.3704703,45.0713238 99.3704703,45.5380908 99.1628286,45.771901 C98.9293029,46.212784 98.7216612,46.4463097 98.4881355,46.9133612 C98.2548941,47.3545287 98.2548941,47.58777 98.0472525,48.0551059 C98.0472525,48.2886317 97.8137267,48.7295146 97.8137267,48.9630404 C97.580201,49.1965661 97.580201,49.6374491 97.3725593,49.8709749 C98.0472525,49.6374491 98.514304,49.4298075 98.955187,48.9630404 C99.1887127,48.7295146 99.3963544,48.521873 99.6295957,48.521873 C100.070763,48.2886317 100.77134,48.0807056 101.212223,47.8474643 C101.653106,47.6139385 102.353684,47.6139385 103.028092,47.6139385 C103.702785,47.8474643 104.377479,48.2886317 104.84453,48.7556832 C105.285698,48.9889245 105.752465,49.4300919 105.98599,49.6636177 C106.219516,50.1045006 106.660684,50.5715521 106.894209,51.0124351 C107.127451,52.1541798 106.660684,52.8288729 106.453042,53.7368074 C106.453042,54.1776904 106.453042,54.6447419 106.453042,55.0856249 C106.453042,55.5267923 106.219516,55.760318 106.011874,56.2273695 C105.570707,56.9020627 105.10394,57.5764714 104.87013,58.2770487 C104.636888,58.7182161 104.636888,59.1849831 104.428962,59.4185089 C104.195721,59.8596763 103.754554,60.3267278 103.521028,60.7676108 C103.287787,61.2087782 103.080145,61.6755453 103.080145,62.1167127 C102.846619,62.5578801 102.638978,63.2584573 102.405452,63.6990559 C102.17221,64.1402233 101.731043,65.2816835 102.405452,65.5154937 C102.846619,65.748735 103.987795,65.0743263 104.455131,64.6075592 C104.896014,64.1663918 105.363065,63.9328661 105.804233,63.4658146 C106.2454,63.0246472 106.712167,62.7911214 107.153335,62.3240699 C107.594218,61.8829025 108.060985,61.4161354 108.502152,60.7417267 C108.735678,59.8337922 108.735678,58.4844059 108.94332,57.5764714 C109.150961,56.6685369 109.617728,55.760318 110.085064,54.8523835 C111.226524,52.5950627 112.575626,50.986551 114.625305,49.4042078 C115.066473,48.9630404 115.299714,48.7295146 115.766766,48.4962733 C116.90851,48.0551059 118.491138,48.4962733 119.165547,49.170682 C119.606714,49.6118495 120.307291,50.0786165 120.74789,50.5197839 C121.422583,51.1941927 122.564328,51.6612442 122.797569,52.7771047 C123.031095,53.2179877 122.797569,53.6850392 122.797569,54.3594479 C122.564328,55.0341411 122.564328,55.5011926 122.356402,56.1756013 C122.12316,56.8502945 121.915519,57.5247032 121.681993,57.9920392 C121.448752,58.2252805 121.240826,58.4329221 120.774058,58.8996892 C120.332891,59.3408566 119.632314,59.8076237 118.957905,60.4823168 C118.283212,61.1567256 117.608803,61.6240615 116.700584,62.2984702 C116.259417,62.531996 115.55884,63.4399305 114.650905,63.2064047 C113.976496,62.972879 113.509445,62.2984702 112.834752,62.06466 C112.393584,63.4137619 113.275919,64.7887479 113.976496,65.9304926 C114.209738,66.1640183 114.417664,66.37166 114.650905,66.37166 C115.55884,66.6051857 116.233533,66.1381342 116.908226,65.6972513 C118.049971,65.0225581 118.490854,64.1146236 119.399072,63.439646 C119.839955,62.9987631 120.540533,62.7652373 120.74789,62.2981858 C120.981416,62.06466 121.422583,61.6237771 121.656109,61.1564411 C122.096992,60.4820324 122.797569,59.5740979 123.472262,59.1070464 C123.705504,58.8735207 124.146671,58.665879 124.613722,58.1991119 C124.847248,57.9655862 125.288131,57.5244188 125.521657,57.0573673 C126.429591,55.9156226 126.663402,55.2412139 126.870759,53.6585862 C127.104285,52.7506518 127.104285,51.6091915 127.104285,50.7012571 C127.337526,49.7933226 127.337526,48.8851037 127.545168,47.9771692 C127.778693,47.302476 127.778693,46.8354245 127.778693,46.1607313 C128.219861,43.4369279 129.361321,40.9460814 130.26954,38.2219935 C130.502781,37.5473003 130.502781,36.8728916 130.710707,36.1723143 C130.943949,35.4979056 131.385116,35.0308541 131.385116,34.3561609 C131.618357,33.9149935 131.618357,33.2147007 131.826283,32.7738177 C132.059525,32.3326503 132.500692,31.8658833 132.734218,31.1911901 C132.967459,30.7503071 133.175101,30.2829712 133.408627,29.6085625 C134.316561,27.5588833 135.22478,25.5353727 136.36624,23.4856936 C136.807408,22.5774746 137.5077,21.4360144 137.948583,20.5280799 C138.389751,19.8536712 138.389751,18.712211 139.297685,18.4784008 C139.972378,18.244875 141.347364,18.9192838 142.021773,19.3863353 C142.929708,20.0610284 142.255014,21.8768974 142.021773,23.0186421 C141.788247,23.9265765 141.580606,24.6009853 141.580606,25.5092042 C141.580606,25.9503716 141.580606,26.1838973 141.347364,26.6509488 C141.113839,27.5588833 140.906197,28.4671022 140.672671,29.3750367 C140.43943,30.2829712 140.43943,31.4247159 140.231504,32.3326503 C140.231504,32.7738177 139.790621,33.2405848 139.790621,33.9149935 C139.790621,34.5896867 139.790621,35.2643799 139.557095,35.7314314 C139.115928,36.6393658 138.882686,37.3137746 138.649161,38.2219935 C138.415635,39.1302124 138.207993,39.8046211 137.741226,40.71284 C137.300059,41.3872488 137.066533,42.0616575 136.833292,42.7622348 C136.599766,43.4369279 136.158883,44.1113366 135.925357,45.0195556 C135.48419,46.1610158 135.017423,47.2768764 134.34273,48.4183366 C133.434795,50.2342055 132.293335,52.0506434 131.177759,53.8665123 C130.944233,54.3073953 130.736591,54.5409211 130.503066,55.008257 C130.269824,55.44914 129.828657,55.6826657 129.828657,56.1497172 C129.595131,57.0576517 129.595131,58.6405638 129.828657,60.0155498 C130.061898,60.9234843 130.061898,61.8317032 130.061898,62.7396376 C130.061898,63.1808051 130.061898,63.6475721 130.295424,63.8810979 C130.295424,64.1146236 130.52895,64.555791 130.736591,64.7890324 C131.177759,65.0225581 131.878052,64.7890324 132.318935,64.7890324 C132.759818,64.7890324 133.226869,64.555791 133.668036,64.3478649 C134.109204,64.1146236 134.34273,63.906982 134.809781,63.6734562 C135.250949,63.4399305 135.48419,63.2322888 135.951241,62.9990475 C136.85946,62.7655217 137.533869,61.8573028 138.208562,61.1828941 C138.64973,60.7417267 139.350307,59.6002665 140.024716,59.3667407 C140.93265,59.133215 141.373817,60.2743907 140.93265,61.1828941 C140.699124,61.8573028 140.258241,62.3243543 140.024716,62.9990475 C139.583548,63.6734562 139.116781,64.3478649 138.675898,65.0487266 C138.001205,65.7231354 137.326796,66.1901869 136.418577,66.8645956 C136.185052,67.0981213 136.185052,67.305763 135.97741,67.305763 C135.743884,67.5392888 135.536242,67.5392888 135.303001,67.7469304 C134.861834,67.9804562 134.394782,68.1880978 133.953615,68.6548649 C133.512732,68.8881062 133.045965,69.0960323 132.371272,69.3295581 C131.696863,69.5627994 130.788644,69.5627994 130.113951,69.5627994 C129.672783,69.5627994 128.972491,69.5627994 128.531608,69.3295581 C128.09044,69.0960323 127.623673,68.6548649 127.182506,68.4213391 C126.508097,68.1880978 126.041046,67.2798789 126.041046,66.6054702 C125.807235,65.6975357 125.599878,64.7890324 125.599878,63.8810979 C125.599878,63.4399305 125.599878,62.7396376 125.599878,62.2987547 C123.109032,64.1149081 119.917892,67.7469304 117.219688,69.5630838 C116.544995,70.0042512 115.170009,70.0042512 114.262359,69.7966096 C113.587666,69.5630838 112.912973,69.1222008 112.21268,68.8883906 C111.771513,68.6551493 111.304746,68.4475077 110.863578,67.9807406 C110.422411,67.5395732 109.955644,66.8389959 109.514476,66.1645872 C109.281235,65.9310615 109.073309,65.4898941 108.606542,65.2566527 L107.932133,65.6978201 C107.698607,65.9310615 107.490966,66.1387031 107.25744,66.3722289 C107.024199,66.6057546 106.816273,66.8133963 106.583031,66.8133963 C106.141864,67.2545637 105.675097,67.487805 105.233929,67.7213308 C104.325995,68.3957395 102.976609,68.862791 101.835148,68.862791 C101.394265,68.862791 101.16074,68.862791 100.693688,68.862791 C100.018995,68.862791 99.3445862,68.6295497 98.6440089,68.1883823 C98.2028415,67.9548565 97.5025487,67.7472149 97.0613813,67.0466376 C96.82814,66.8133963 96.82814,66.3722289 96.82814,65.9051774 C96.82814,65.4378414 97.0613813,64.5560755 97.2693074,64.089024 C97.5028331,63.4143308 97.5028331,62.7399221 97.7101903,62.2728706 C98.1513578,61.3646517 98.6184093,60.2231914 99.0595767,59.315257 C99.292818,58.6408482 99.7339854,57.9661551 99.9675111,57.2655778 C100.200752,56.565285 100.200752,55.9164759 100.408394,55.2161831 C100.408394,54.7750157 100.64192,53.8670812 100.175153,53.6335555 C99.5004596,52.9591467 97.917832,53.4000297 97.2175392,53.8670812 C96.7763718,54.1003225 96.3096047,54.3079642 96.076079,54.5414899 C95.8425532,54.7750157 95.4013858,54.7750157 95.1681445,55.2161831 C94.9346187,55.4494244 94.9346187,55.6573505 94.7269771,55.8905918 C94.4934513,56.1241176 94.2855252,56.3317592 93.8187581,56.7985263 C93.5855168,57.0320521 93.5855168,57.472935 93.3778752,57.7064608 C93.3778752,57.9399865 93.1443494,58.1476282 93.1443494,58.6143953 C92.9108237,59.0555627 92.703182,59.7561399 92.4699407,60.1970229 C92.2364149,60.8714316 91.7952475,61.5458403 91.5620062,62.687585 C91.1208388,64.0366869 90.4202616,65.6451986 90.2129043,67.2278263 C89.9793786,67.9025194 89.9793786,68.8104539 89.7717369,69.4851471 C89.7717369,69.7186728 89.3305695,70.3930816 89.0970438,70.3930816 C88.8638025,70.3930816 88.1893937,70.1595558 87.7482263,69.9519141 C86.8402918,69.5107467 85.9320729,69.5107467 85.6985472,68.3695709 C85.023854,68.6028123 84.3494453,69.0439797 83.8823938,69.2775054 C83.648868,69.5107467 83.4412264,69.7186728 83.2079851,69.7186728 C82.9744593,69.9519141 82.5332919,69.9519141 82.3000506,69.9519141 C82.0665248,69.9519141 82.0665248,69.9519141 81.8588832,70.1854399 C81.6253574,70.4186812 81.4177158,70.4186812 80.9506643,70.4186812 C80.5097813,70.4186812 80.2762555,70.4186812 79.809204,70.4186812 C79.1347953,70.4186812 78.2268608,70.1854399 77.5518832,70.1854399 C77.1110002,70.1854399 76.6439487,70.1854399 76.410423,69.9519141 C75.9692556,69.7186728 75.7357298,69.5107467 75.5024885,69.2775054 C74.8277953,68.836338 74.1533866,68.1357608 73.6860507,67.461352 C73.2448833,66.7869433 73.011642,65.8787244 72.7781162,64.9705055 C72.1037075,65.4116729 71.8701817,65.8784399 71.4290143,66.5528487 C70.9881313,66.9943005 70.7543211,67.6945933 70.2875541,68.3692865 C69.3796196,69.5107467 68.7049264,70.6263229 67.5634662,71.5345418 C66.6555317,72.2089505 64.8390939,72.676002 63.4902765,72.676002 C60.7661886,72.235119 59.1835609,70.1854399 57.8082905,68.1357608 C56.900356,69.0436952 55.7586114,70.1854399 54.4097939,71.301016 C53.501575,71.9757092 53.2680493,72.4427607 52.1524731,72.8836437 C51.47778,73.116885 50.8033712,73.3245266 50.102794,73.3245266 C49.6616266,73.3245266 49.4281008,73.3245266 48.9610493,73.0912853 C48.7275236,73.0912853 48.2863561,73.0912853 48.0531148,72.8577596 C47.8195891,72.6245183 47.6119474,72.4165922 47.3784217,71.9498251 C47.1448959,71.2754164 46.9375387,70.3674819 46.7040129,69.6925043 C46.7040129,69.2513369 46.7040129,68.7845698 46.7040129,68.3436868 C46.7040129,67.9025194 46.7040129,67.2019422 46.9375387,66.7610592 C47.1710644,66.3201762 47.3784217,65.6193145 47.3784217,65.1784316 C47.6119474,64.5040228 47.8195891,63.8296141 48.2863561,63.1290369 C48.5198819,62.6878695 49.4278164,61.5464092 49.1942906,61.3128835 C49.1942906,60.404949 47.611663,60.6381903 47.1446115,60.1711388 C46.4699183,60.845832 46.0028668,61.7537664 45.5619838,62.4284596 C45.3284581,62.869627 45.1208164,63.1028683 44.8872907,63.5699198 C44.6537649,64.0110872 44.4461233,64.4781387 44.2125975,64.9193062 C43.9790717,65.3601891 43.5381888,65.5937149 43.304663,66.0607664 C43.0711373,66.5019338 42.8637801,66.9687009 42.6302543,67.4098683 C41.9555611,68.3178028 41.7223198,69.2260217 41.0476267,69.9007148 C40.6064593,70.5751236 39.9061664,71.483058 39.2314733,72.1577512 C38.5570645,72.8324444 37.6491301,73.7403788 36.7409112,74.2074303 C36.3000282,74.4409561 35.5994509,74.4409561 35.158568,74.4409561 C34.4838748,74.4409561 33.8094661,74.6741974 33.3424146,74.6741974 C32.6680058,74.9077232 31.9933127,74.9077232 31.2927354,74.9077232 C30.8518524,74.9077232 30.3848009,74.4665558 29.7101078,74.4665558 C29.2692248,74.23303 29.035699,74.23303 28.5686475,74.0253883 C28.1274801,73.7918626 27.8939544,73.3509796 27.6607131,73.1174539 C27.4271873,72.8842126 27.2195457,72.6762865 26.9860199,72.4430451 C26.0780854,70.8604175 25.8445597,68.5772126 25.8445597,66.3201762 C24.4954578,66.0866505 22.886946,66.0866505 21.5378442,65.8790088 C21.3043184,65.8790088 20.3960995,69.0442641 20.3960995,69.5113156 C19.9552165,70.8604175 19.7216908,72.0021622 19.488165,73.3771482 C19.488165,73.8183156 19.2546393,74.5188928 19.2546393,74.9597758 C19.2546393,75.1930171 19.0211135,75.4009432 19.0211135,75.6341845 C18.3464203,77.6835792 17.6720116,79.5000171 16.9714344,81.5235277 C16.9714344,81.9646951 16.7379086,82.1979364 16.5302669,82.4314621 C16.2967412,82.8726296 15.8555738,82.6649879 15.3888067,82.8726296 C15.155281,82.8726296 15.155281,83.1061553 14.9476393,83.1061553 C14.7399977,83.1061553 14.5067563,82.8726296 14.5067563,82.6649879 C14.2732306,82.2238205 14.5067563,81.5232432 14.5067563,81.0823603 C14.5067563,80.4079515 14.2732306,79.5000171 14.2732306,78.5917981 C14.2732306,77.917105 14.5067563,77.2426963 14.5067563,76.7756447 C14.5067563,75.8677103 14.7402821,74.9594914 14.9476393,74.0512724 C15.1811651,72.702455 15.1811651,71.0939433 15.6223325,69.7445569 C15.8558582,68.395455 16.2970256,67.0204691 16.5302669,65.8787244 C13.8061791,66.1122501 11.0820912,66.7869433 8.82477041,67.6948778 C8.59124465,67.9284035 8.59124465,68.3695709 8.383603,68.8366225 C8.15007724,69.2777899 7.94272003,69.9780827 7.70890983,70.4189657 C7.47538408,72.0015933 7.03450111,73.5842209 6.80097536,75.1927327 C6.80097536,76.1006671 6.5674496,76.7753603 6.35980795,77.6832948 C5.91864054,79.7329739 5.45187347,81.7564845 5.01070606,84.0399739 C5.01070606,84.2732152 5.01070606,84.4811413 4.7771803,84.7143826 C4.54365455,84.9479084 4.33601289,84.9479084 4.10248714,85.15555 C3.86896139,85.3890758 3.86896139,86.0634845 3.42779398,86.0634845 C4.56953865,85.6223171 3.66131973,85.15555 3.66131973,85.15555 C3.42779398,84.9220243 3.42779398,84.4811413 3.42779398,84.2476155 C3.19426822,83.5732068 3.19426822,82.8985137 3.42779398,82.1979364 C3.42779398,81.0564762 3.66131973,80.1485417 3.86896139,79.0329656 C3.86896139,78.3582724 4.10248714,77.8912209 4.10248714,77.2165277 C4.54365455,74.4924398 4.54365455,71.768352 5.24394737,69.2777899 C4.56953865,69.5110312 3.42779398,69.9521986 2.5198595,69.7189573 C2.07897653,69.4854315 1.17075761,68.8110228 0.937231861,68.1363296 C0.703706107,67.6951622 0.496348891,66.9948694 0.496348891,66.3201762 C0.496348891,66.0866505 0.262823138,65.6457675 0.262823138,65.4122418 C0.262823138,65.178716 0.496348891,65.178716 0.703990548,65.178716 C1.14515796,65.4122418 1.37868371,65.178716 1.84573522,64.9454747 C2.28661819,64.9454747 2.7536697,64.7119489 3.19483711,64.7119489 C4.10277158,64.4787076 5.24451625,64.0375402 6.15245073,63.5702043 C6.38597648,62.8957955 6.38597648,61.9878611 6.5933337,61.0796422 C7.03450111,59.2634888 7.26802686,57.6811456 7.73507837,55.8649922 C7.96860412,55.190299 7.96860412,54.2823645 8.17596134,53.6076714 C8.17596134,53.3741456 8.17596134,53.166504 8.17596134,52.9329782 C8.17596134,52.6997369 8.17596134,52.4920952 8.17596134,52.2585695 C8.17596134,52.0250437 8.40948709,51.5841608 8.40948709,51.350635 C8.64301285,50.6759418 8.8506545,50.0015331 8.8506545,49.5344816 C9.08418026,47.951854 9.29182191,46.1357006 9.75858898,44.3195472 C10.1994719,42.737204 10.9000492,41.1542919 11.1076909,39.5457802 C11.1076909,38.8713714 11.1076909,38.1969627 11.3412166,37.4963855 C11.3412166,37.055218 11.7820996,36.8219767 11.7820996,36.588451 C11.7820996,36.3549252 11.7820996,35.9140423 11.7820996,35.4467063 C12.4567928,32.4893771 13.598253,29.5573632 14.2726617,26.5997495 C14.2726617,26.1585821 14.5061875,25.6918151 14.5061875,25.4582893 C14.5061875,25.0171219 14.5061875,24.5500704 14.7397132,24.3165446 C14.973239,23.8753772 15.1808806,23.4086102 15.1808806,23.1750844 C15.4144064,22.2671499 15.6217636,21.3592154 15.6217636,20.4509965 C15.8552893,20.0098291 15.8552893,19.5430621 16.062931,19.1018946 C16.2964568,18.6610117 17.2043912,19.1018946 17.4120329,19.1018946 C17.6196745,19.1018946 17.8532003,19.3354204 18.0867261,19.3354204 C18.5278935,19.5689462 18.7614192,19.5689462 18.9946605,19.7765878 C19.2281863,20.0101136 19.4358279,20.2177552 19.6693537,20.451281 C20.1105211,20.8921639 20.5772882,21.3594999 20.8110984,22.0339086 C21.0446241,22.475076 21.0446241,22.9418431 21.0446241,23.3830105 C21.0446241,23.8238935 20.6034567,24.290945 20.6034567,24.7321124 C20.1622893,25.8735726 19.9287635,26.9894332 19.6955222,28.1308934 C18.554062,31.088507 17.6458431,34.4875725 16.5302669,37.6525434 C16.2967412,38.0937108 16.0890995,38.794288 16.0890995,39.235171 C15.6482166,40.5842729 15.6482166,42.1927846 15.1811651,43.5418865 C14.9476393,44.2165797 14.7399977,44.6836312 14.5064719,45.5915657 C14.2729461,46.2662588 14.0655889,46.9406675 14.0655889,47.6412448 C13.3908958,51.0397414 12.716487,54.2311652 11.8082681,57.6296618 C12.0161942,58.5868045 11.1079753,60.1691477 10.9006181,61.9853011 Z M138.59853,30.4630221 C137.690596,32.5127013 136.782377,34.3288546 136.107684,36.8197012 C135.874442,37.0529425 135.874442,37.4941099 135.874442,37.7273512 C135.874442,38.6352857 133.150355,45.2252061 133.38388,46.107541 C134.058289,45.1996065 136.341209,38.4020444 136.782377,37.4941099 C136.782377,37.2605842 136.782377,37.2605842 136.782377,37.2605842 C137.690311,35.2106206 138.365005,32.9535842 138.59853,30.4630221 L138.59853,30.4630221 Z M36.9744369,55.6289064 C35.625335,56.9780083 34.4838748,58.3529943 33.3421301,59.7020962 C33.1086044,59.9353375 32.667437,60.3765049 32.667437,60.8438409 C35.3920937,60.4026735 37.2079627,58.3529943 36.9744369,55.6289064 C37.2079627,55.6289064 37.2079627,55.6289064 36.9744369,55.6289064 Z M61.932964,67.8746443 C62.3741314,68.10817 62.8408985,68.5493374 63.0744243,68.5493374 C63.30795,68.5493374 63.9823587,67.8746443 64.2158845,67.6411185 C64.8902932,66.9667098 65.5649864,66.0587753 65.5649864,65.3840821 C65.5649864,63.1267613 64.8902932,60.4026735 64.8902932,58.1194686 C64.8902932,58.1194686 64.8902932,58.1194686 64.6567675,58.1194686 C62.6073728,60.3767894 61.6994383,63.334403 59.8830004,65.8252495 C60.3241679,66.2661325 60.5576936,66.9667098 61.0244607,67.4075927 C61.4659125,67.4334768 61.6997227,67.6411185 61.932964,67.8746443 Z M114.107055,58.7941617 C115.014989,58.560636 118.647296,55.1618549 118.41377,52.9048186 C116.804974,52.4636512 114.548222,57.9121113 114.107055,58.7941617 Z" id="Shape"></path>
                <path d="M65.772628,1.19777947 C65.772628,2.3392397 66.213511,3.45481584 66.213511,4.83008626 C66.8882042,4.83008626 68.4708318,4.1553931 68.2631902,5.27096923 C68.2631902,5.94566239 66.9140883,5.71213664 66.213511,5.94566239 C66.213511,7.29476428 66.4473212,8.66975026 66.6546784,10.0188522 C67.3293716,10.0188522 69.1452405,9.34415899 69.3790507,10.0188522 C69.6125765,10.9267866 66.2137954,10.9267866 65.7467439,10.6935453 C65.305861,7.73593169 65.0720508,3.89598325 65.0720508,0.70484387 C65.5132182,0.471318116 66.6546784,0.471318116 67.3293716,0.26367646 C67.7702545,0.26367646 68.2373061,0.0301507063 68.2373061,0.497202213 C68.4967159,1.19777947 66.4732053,0.964538161 65.772628,1.19777947 Z" id="Shape"></path>
                <path d="M73.0369572,0.964538161 C72.5957898,0.289844997 71.454614,0.730727967 71.2210882,1.40542113 C70.9875625,1.84658854 70.9875625,2.54688136 71.2210882,2.98804877 C71.454614,3.66245749 72.3625484,4.33715066 72.8037159,5.24508513 C73.7116503,6.3868298 74.3860591,7.73564725 73.7116503,9.55180064 C73.0369572,10.4600196 71.2210882,10.9009025 70.3128693,9.55180064 C70.0793435,9.11063323 69.4046504,6.3868298 70.5463951,6.3868298 C71.4543295,6.3868298 70.5463951,9.34444343 71.8954969,9.34444343 C72.5699057,9.34444343 73.2443144,8.90356046 73.2443144,7.99534154 C73.0110731,5.73830518 70.5202265,4.8303707 70.2867008,2.31364005 C70.2867008,1.87247264 70.2867008,1.40570557 70.7278682,0.964538161 C71.6358026,-0.618089479 73.8931235,-0.17720651 73.8931235,1.87247264 C73.8931235,2.10599839 73.8931235,2.78040711 73.451956,2.78040711 C73.2184303,2.78040711 73.2184303,2.33952414 73.2184303,2.10571395 C73.2707674,1.63894688 73.2707674,1.43130523 73.0369572,0.964538161 Z" id="Shape"></path>
                <path d="M79.8345192,1.19777947 C79.3933518,1.63866244 78.4857018,1.19777947 78.0183658,1.19777947 C78.0183658,3.68834159 78.0183658,6.17890371 77.7851245,8.69563436 C77.7851245,8.92916012 77.7851245,9.37032753 77.7851245,9.60356884 C77.7851245,10.0447362 77.7851245,10.5115033 77.1104314,10.5115033 C76.669264,10.0703359 76.8771901,9.37004308 76.8771901,8.92887567 C77.1104314,6.43831356 77.1104314,3.71422569 77.318073,1.22337913 C77.318073,1.45690488 75.9692556,1.22337913 75.7357298,1.22337913 C75.5024885,1.22337913 75.0613211,0.989853377 75.2945624,0.782496161 C75.2945624,0.548970407 75.9692556,0.548970407 76.2024969,0.548970407 C76.8771901,0.548970407 77.3442416,0.548970407 78.0186503,0.548970407 C78.7189431,0.289844997 80.068045,0.289844997 79.8345192,1.19777947 Z" id="Shape"></path>
                <path d="M85.9573881,10.7194294 C86.1909139,10.9529552 86.3985555,11.3941226 86.6320813,11.6273639 C86.8653226,11.8608896 87.0729643,12.0685313 87.30649,12.3020571 C87.7476574,12.5355828 88.2144245,12.5355828 88.4479503,12.7432245 C89.3558847,12.9767502 90.2643881,13.4179176 91.1723226,13.4179176 C91.6132055,13.6514434 92.3137828,13.6514434 92.7546658,13.6514434 C94.8043449,13.8849691 96.8278555,13.8849691 98.8775347,14.0926108 C100.693404,14.3261365 102.509841,14.767304 104.32571,15.234071 C106.583031,15.9087642 109.307119,16.8164142 111.122988,18.3993263 C111.356229,18.6328521 112.705331,19.9819539 111.797397,20.4490054 C111.122988,20.6825312 110.889462,19.541071 110.655937,19.3075452 C109.981243,18.6328521 109.073309,18.3996107 108.398616,17.9584433 C107.490681,17.5175604 106.582462,17.2840346 105.674243,16.8166987 C103.624849,16.1422899 101.601338,15.6752384 99.551659,15.2343555 C96.1528779,14.7931881 92.5205711,14.7931881 89.5632419,13.8852536 C88.2141401,13.4443706 86.6056283,13.2108449 85.9306507,11.8355744 C85.6974094,11.6020487 85.6974094,11.394407 85.4897678,11.1608813 C85.4897678,10.9273555 85.4897678,10.7197139 85.256242,10.7197139 C85.0227162,10.7197139 84.8150746,10.7197139 84.8150746,10.7197139 C84.5818333,10.7197139 84.5818333,10.4861881 84.3739072,10.4861881 C83.6994985,10.0453051 83.2324469,9.34472787 83.2324469,8.67003471 C82.9989212,7.32093282 83.6736144,4.80420216 83.9068557,3.45538472 C84.1403814,2.31392449 84.1403814,1.19834836 84.8147901,0.731012407 C85.2559576,0.290129438 86.8644693,0.290129438 87.3056367,0.497486654 C87.7468041,0.705128311 88.2135712,1.63923132 88.2135712,2.08011429 C88.2135712,2.75480746 87.9800454,3.66245749 87.9800454,4.57067641 C87.7468041,5.92006274 87.538878,7.06152297 87.3056367,8.2029832 C86.6579654,9.57796918 86.4244396,10.278262 85.9573881,10.7194294 Z M83.9338775,6.64595521 C83.7003518,7.9950571 83.7003518,9.81121049 84.8415276,9.81121049 C85.9832722,10.0447362 85.9832722,9.13651733 85.9832722,8.22858285 C86.216798,6.87948097 86.6579654,5.50449498 86.6579654,3.92186734 C86.6579654,3.48069993 86.8912067,3.01393287 86.8912067,2.57276546 C86.8912067,2.13159805 86.4503237,1.43130523 85.9832722,1.43130523 C85.5423893,1.19777947 84.8415276,1.19777947 84.6344548,1.8721882 C84.400929,2.31335561 84.6344548,2.78012267 84.400929,3.22129008 C84.400929,3.66217305 84.1674033,4.36275031 84.1674033,4.80363328 C84.1671188,5.50477942 83.9338775,5.94566239 83.9338775,6.64595521 Z" id="Shape"></path>
                <path d="M63.7491174,10.7194294 C62.8411829,11.3941226 62.4000155,10.4859037 61.932964,9.57796918 C61.2582709,8.22858285 60.3503364,6.17918815 59.8832849,5.03772792 C59.8832849,6.3868298 60.1168106,7.99534154 60.3244523,9.34444343 C60.3244523,9.78561084 60.7656197,10.9270711 59.8832849,10.9270711 C59.2088762,10.9270711 59.2088762,8.66975026 58.9753504,7.96945744 C58.7418247,6.15358849 58.7418247,4.57067641 58.3009417,2.75480746 C58.3009417,2.5212817 58.3009417,2.08011429 58.3009417,1.84687298 C58.3009417,1.40570557 58.5344674,0.938654064 58.9753504,1.40570557 C59.4165178,1.63923132 59.6500436,2.08039873 59.8832849,2.5471658 C60.557978,4.36331919 61.2323868,6.17947259 62.1406057,7.99534154 C62.1406057,6.85388131 61.9070799,5.73830518 61.9070799,4.12979344 C61.9070799,3.22185896 61.2326712,0.731012407 62.3482473,0.964822602 C62.7894148,1.19834836 62.7894148,1.63923132 62.7894148,2.31392449 C63.0485402,4.83008626 63.7491174,7.76181579 63.7491174,10.7194294 Z" id="Shape"></path>
                <path d="M90.056462,1.43130523 C90.2899877,1.43130523 90.2899877,1.8721882 90.4976294,2.10571395 C90.4976294,2.54688136 90.4976294,3.01364843 90.2643881,3.24717418 C90.0308623,4.59656051 89.8232207,6.2047878 89.5896949,7.78741544 C89.5896949,8.46210861 89.3561692,9.13680177 89.3561692,9.60356884 C89.5896949,10.278262 90.2643881,10.7450291 90.9387968,10.7450291 C92.0805415,10.5115033 92.0805415,8.92887567 92.2878987,7.58005823 C92.52114,6.2306719 92.7290661,5.32273742 92.9623074,3.71422569 C92.9623074,3.03953252 93.1958332,2.13159805 93.6370006,2.13159805 C94.0778836,2.13159805 93.8702419,3.27334272 93.8702419,4.18127719 C93.6370006,5.76362039 93.4290745,6.90536506 93.1958332,8.25446695 C92.9623074,9.83681015 92.7546658,11.2120806 91.3796798,11.653248 C89.7970521,12.094131 88.2144245,10.9785548 88.4220662,9.16240143 C88.4220662,8.25446695 88.8632336,7.11272228 89.0964749,6.2047878 C89.3300006,5.06332757 89.3300006,4.15510866 89.5376423,3.03953252 C89.5896949,2.54688136 89.8232207,1.63894688 90.056462,1.43130523 L90.056462,1.43130523 Z" id="Shape"></path>
                <path d="M58.3009417,11.1603124 C57.3927228,11.6014798 57.3927228,9.81121049 57.159197,9.11063323 C56.7180296,7.29476428 56.7180296,5.71213664 56.2512625,3.89598325 C56.2512625,3.45510028 56.0177368,2.98804877 56.0177368,2.54688136 C56.0177368,2.31335561 55.784211,1.63894688 56.2512625,1.40542113 C56.6924299,0.964538161 56.9259557,2.08011429 56.9259557,2.31335561 C56.9259557,2.54659692 56.9259557,2.98804877 57.1594815,3.22129008 C57.3930072,4.36275031 57.6003644,5.03744348 57.6003644,6.17890371 C57.6262485,8.22858285 58.5344674,10.0447362 58.3009417,11.1603124 Z" id="Shape"></path>
                <path d="M52.1777883,3.45481584 C52.6189557,4.59656051 52.8524815,5.71213664 53.0857228,6.85359687 C53.5268902,6.85359687 55.3430436,5.71213664 55.8098107,6.62007112 C56.0433364,7.52800559 53.9939417,7.52800559 53.5527743,7.76153135 C53.5527743,8.66946582 53.7863001,9.34415899 54.2274675,10.2520935 C54.4609932,10.9267866 54.9018762,12.3017726 53.9939417,12.3017726 C53.3192486,12.3017726 53.0857228,10.4856192 52.8521971,9.81121049 C52.8521971,9.37004308 52.8521971,8.90327602 52.6186713,8.66946582 C52.1775039,6.85331243 51.2695694,4.36275031 51.2695694,2.54659692 C51.9442626,2.54659692 53.0857228,1.87190376 53.9939417,1.87190376 C54.4348247,1.87190376 54.9018762,1.87190376 54.6683505,2.54659692 C54.4348247,3.22129008 52.6189557,3.01393287 52.1777883,3.45481584 Z" id="Shape"></path>
                <path d="M97.0875498,9.81149494 C96.6463824,9.57796918 96.1796153,9.37032753 95.7384479,9.13680177 C95.5049222,9.57796918 95.2972805,10.0447362 94.8305135,10.719145 C94.5969877,10.9526707 94.5969877,11.1603124 94.389346,11.3938381 C94.389346,11.6273639 94.1561047,11.6273639 94.1561047,11.6273639 C93.4814116,11.8608896 93.4814116,11.1864809 93.7149373,10.7194294 C93.9481786,10.2523779 94.1561047,9.81149494 94.389346,9.37032753 C95.5310907,7.32064838 96.2054994,4.83008626 97.3469597,2.78040711 C98.0213684,2.33952414 97.7881271,3.45510028 97.7881271,4.129509 C97.7881271,4.57039197 97.7881271,5.03744348 98.0213684,5.71213664 C98.0213684,7.52829003 97.7881271,9.57796918 97.7881271,10.9267866 C97.7881271,11.6014798 97.7881271,12.2758885 97.3469597,12.5094143 C96.4128567,12.7691086 97.0875498,10.4859037 97.0875498,9.81149494 Z M95.9458051,8.46210861 C96.3869726,8.69563436 96.6202139,8.90327602 97.0875498,8.90327602 C97.3210756,7.9950571 97.3210756,6.41242946 97.0875498,5.27096923 C96.8540241,6.17918815 96.4128567,7.32064838 95.9458051,8.46210861 Z" id="Shape"></path>
                <path d="M101.627791,3.68834159 C101.39455,6.64595521 100.278689,9.37032753 99.8116377,12.0682469 C100.252805,12.5094143 102.302484,12.5094143 102.068958,13.4173487 C102.068958,14.3252832 100.719857,13.4173487 100.486331,13.4173487 C99.8119221,13.183823 98.9039876,13.183823 98.6701775,12.7426556 C98.4369361,12.3014882 98.9037032,11.1600279 99.1113449,10.4853348 C99.5525123,8.43565563 100.460447,5.50421054 100.927498,3.89541437 C101.16074,3.92186734 101.39455,3.45481584 101.627791,3.68834159 Z" id="Shape"></path>
                <path d="M44.2390505,5.03744348 C44.4725762,6.17890371 44.9137436,7.29476428 45.146985,8.43622451 L46.4960868,7.9950571 C46.7296126,7.9950571 46.9372543,7.76153135 47.17078,7.76153135 C47.611663,7.76153135 47.8451887,8.20241432 47.4043058,8.66946582 C46.9631384,8.90299158 46.4963713,9.11034879 46.0552039,9.11034879 L45.3807952,9.34387455 C45.6143209,10.4853348 46.2887296,11.6011954 46.5222554,12.7426556 C47.6637156,12.5091298 48.5716501,11.8347211 49.6875107,12.0679624 C50.1283936,12.7426556 49.0128175,12.9761813 48.3381243,13.2097071 C47.4301899,13.4432328 46.2884452,14.1176416 45.8475622,13.2097071 C45.6140365,12.7685397 45.4063948,11.8603208 45.1728691,11.1600279 C44.4981759,9.11034879 43.5902414,6.61978668 43.3567157,4.36275031 C44.0311244,4.12922456 45.6140365,3.22129008 46.3143293,3.45481584 C46.547855,3.45481584 46.7554967,3.68834159 46.7554967,3.68834159 C46.9631384,4.83008626 44.6799335,4.83008626 44.2390505,5.03744348 Z" id="Shape"></path>
                <path d="M105.934791,4.83008626 C106.375958,5.06361201 106.168032,5.73802074 105.934791,5.97154649 C105.493624,8.02122564 105.026572,10.0447362 104.352163,12.0944154 C104.118638,12.7691086 103.910996,14.5849775 103.003062,14.1440945 C102.561894,13.4694014 103.236587,12.7949927 103.444229,11.8870582 C103.885396,10.5376719 104.352163,8.7218029 104.793331,7.11329116 C105.026288,6.17918815 105.260098,5.27096923 105.934791,4.83008626 L105.934791,4.83008626 Z" id="Shape"></path>
                <path d="M109.774455,6.85359687 C109.540929,8.43622451 108.63271,9.81121049 108.191827,11.1603124 C107.958586,11.8350055 107.958586,12.5094143 107.750944,13.2099915 C107.517419,13.6508745 107.309777,15.0258605 106.84301,15.0258605 C105.935075,15.0258605 106.609484,13.4435173 106.84301,12.9764658 C107.517419,10.719145 108.425353,8.66946582 109.100331,6.62007112 C109.100331,6.62007112 108.192112,6.17890371 107.958586,6.17890371 C107.72506,6.17890371 107.72506,5.94537795 107.517419,5.94537795 C107.517419,5.94537795 107.283893,5.27068479 107.517419,5.27068479 C108.191827,5.27068479 108.866521,5.50421054 110.008265,5.94537795 C110.682674,6.17890371 111.590608,6.38654536 111.590608,6.85331243 C111.82385,7.9950571 110.241222,7.08712262 109.774455,6.85359687 Z" id="Shape"></path>
                <path d="M43.5643573,12.5355828 C43.7978831,12.7691086 43.7978831,13.210276 44.0055247,13.4435173 C44.2390505,13.8844003 44.4464077,14.5849775 43.771999,14.5849775 C43.0973058,14.8185033 43.0973058,13.677043 42.8640645,13.0023499 C42.6308232,12.3276567 41.9558456,11.1861965 41.9558456,10.5117878 C41.2811524,10.7453135 40.8143854,10.9529552 40.1396922,10.9529552 L40.8143854,13.0026343 C41.0479111,13.4438017 41.0479111,13.6773275 41.2555528,14.1440945 C41.2555528,14.585262 41.6964357,15.2855548 41.022027,15.2855548 C40.5808596,15.2855548 40.3473338,14.6108616 40.3473338,14.1440945 C40.1138081,13.2361601 39.4393994,12.0944154 39.2058736,10.9788393 C38.7647062,9.83737903 38.5311804,8.7218029 38.2976547,7.58005823 C38.2976547,7.34653247 37.8567717,6.67212375 38.0641289,6.438598 C38.2976547,5.76390483 38.9720634,6.87976541 38.9720634,7.11329116 C39.2055892,7.34681692 39.2055892,7.78769989 39.2055892,8.02122564 C39.4391149,8.6959188 39.8802823,9.37061197 39.8802823,10.0709048 C40.5546911,10.0709048 41.2293842,9.63002182 41.929677,9.39649606 C41.6961513,8.48856159 41.4887941,8.04739418 41.2552683,6.90564951 C41.0217426,6.23095634 40.5805752,5.08978055 41.2552683,5.08978055 C41.6961513,5.08978055 41.929677,5.99771503 41.929677,6.23124078 C42.1632028,6.67240819 42.1632028,7.37298545 42.3708445,7.81386842 C42.6043702,8.48856159 42.8120119,9.39649606 43.0455376,10.0709048 C43.2790634,10.5120722 43.2790634,10.7455979 43.4864206,11.212365 C43.3308316,12.0685313 43.3308316,12.3020571 43.5643573,12.5355828 Z" id="Shape"></path>
                <path d="M112.498543,7.08712262 C112.731784,7.08712262 112.731784,7.08712262 112.498543,7.08712262 C112.731784,7.52829003 112.498543,8.22858285 112.731784,8.43622451 C112.731784,9.34415899 112.731784,10.0188522 112.96531,10.9267866 C113.406477,10.4856192 114.314412,10.0188522 115.014989,9.57768474 C115.24823,9.34415899 115.456157,8.90299158 115.689398,8.66946582 C115.922924,8.43594007 116.363807,8.22829841 116.597332,8.43594007 C116.830858,8.87682304 116.156165,9.57768474 115.922924,9.78504196 C115.014989,10.6929764 113.665603,11.6011954 112.757668,12.7426556 C112.524143,13.6505901 112.082975,14.9999764 111.615924,16.1414366 C111.382682,16.5823196 111.382682,17.4905385 110.474463,17.0493711 C110.474463,15.9079109 111.148872,14.558809 111.615924,13.4170643 C111.849449,12.5091298 112.057091,11.8344367 112.057091,10.251809 C112.057091,9.81092605 111.823565,9.11006435 111.823565,8.66918138 C111.823565,8.22801397 111.823565,7.52772115 112.057091,7.3200795 C112.290617,6.85359687 112.498543,6.85359687 112.498543,7.08712262 Z" id="Shape"></path>
                <path d="M35.158568,8.46210861 C35.8329767,10.0447362 36.7409112,12.5352984 37.6491301,14.5849775 C37.8826558,15.2593862 38.7908747,16.6346567 37.8826558,16.8422983 C37.2079627,17.0758241 36.9744369,15.7005536 36.7409112,15.0261449 C35.8329767,12.9767502 35.158568,10.9529552 34.4838748,8.90356046 C33.8091816,9.13708621 33.3421301,9.57825362 32.6677214,9.34444343 C32.4341956,8.66975026 33.5759403,8.43650895 34.250349,7.99534154 C34.9250422,7.76181579 35.8329767,7.08740707 36.3000282,7.08740707 C36.5335539,7.08740707 36.9744369,7.08740707 36.9744369,7.52857448 C36.7409112,7.9950571 35.6256195,7.9950571 35.158568,8.46210861 Z" id="Shape"></path>
                <path d="M67.3814242,34.5362119 C68.7305261,34.5362119 70.3390378,34.5362119 71.454614,34.5362119 C71.454614,34.9773793 71.6878553,35.4441463 71.454614,35.8853138 C71.2210882,36.1185551 70.5466795,35.8853138 70.1055121,35.8853138 C70.1055121,38.3761603 70.1055121,41.3334895 70.1055121,44.0575774 C69.8719863,44.2911031 68.9637674,44.2911031 68.7564102,44.0575774 C68.7564102,41.3334895 68.7564102,38.6094016 68.7564102,35.6776721 C68.3152428,35.6776721 67.6146655,35.6776721 67.1737826,35.6776721 C67.1478985,35.6779565 66.9143727,34.7697376 67.3814242,34.5362119 Z" id="Shape"></path>
                <path d="M75.7613295,34.7697376 C75.7613295,37.7270668 75.7613295,41.359658 75.7613295,44.2913876 C75.5280882,44.5249133 74.8536794,44.2913876 74.412512,44.2913876 C74.1789863,43.1496429 74.412512,41.3337739 74.412512,39.9843876 C74.1789863,39.7511463 73.7378189,39.9843876 73.5045776,39.9843876 C73.5045776,41.3334895 73.7378189,43.1496429 73.5045776,44.2913876 C73.0634101,44.2913876 72.3628329,44.5249133 72.1554757,44.0578618 C71.9219499,41.1005326 72.1554757,37.7014671 72.388717,34.7700221 C72.8298844,34.5364963 73.2969359,34.7700221 73.7378189,34.7700221 C73.7378189,35.9117667 73.7378189,37.2605842 73.7378189,38.4023288 C73.9713446,38.6355702 74.412512,38.4023288 74.6457533,38.4023288 C74.6457533,37.2605842 74.412512,35.678241 74.6457533,34.5364963 C74.853395,34.7697376 75.3204465,34.7697376 75.7613295,34.7697376 Z" id="Shape"></path>
                <path d="M80.5350965,34.9773793 C80.5350965,35.2106206 80.7683378,35.8853138 80.5350965,36.1188395 C80.0939291,36.3523653 79.3933518,36.1188395 78.9527533,36.1188395 C78.7192275,36.7935327 78.9527533,37.9352773 78.9527533,38.6096861 C79.3936363,38.6096861 80.0942135,38.6096861 80.5350965,38.6096861 C80.5350965,38.8432118 80.7683378,39.5176205 80.5350965,39.7514307 C80.3015707,39.984672 79.627162,39.7514307 79.1859946,39.984672 C78.9527533,40.8926065 79.1859946,41.8008254 79.1859946,42.7087599 C79.627162,42.7087599 80.3277393,42.7087599 80.7683378,42.7087599 C80.7683378,42.9422857 81.002148,43.3834531 80.7683378,43.8505046 C79.6268776,44.0840303 78.7189431,44.0840303 77.603367,43.8505046 C77.603367,41.8008254 77.3698412,39.7773148 77.3698412,37.7276357 C77.3698412,36.8199856 77.1365999,35.678241 77.603367,34.7703065 C78.0183658,34.7697376 79.6268776,34.7697376 80.5350965,34.9773793 Z" id="Shape"></path>
                <path d="M77.1104314,76.9551268 C78.252176,76.7218855 78.693059,77.6298199 78.9265848,78.5377544 C79.1601105,79.8865719 78.9265848,81.2618423 78.9265848,82.4033025 C78.9265848,82.8444699 78.9265848,83.311237 78.9265848,83.5450472 C78.9265848,84.2197404 79.1601105,84.8941491 78.6933434,85.5947263 C78.252176,86.0358938 77.5515988,86.5026608 76.8771901,86.5026608 C76.4360226,86.5026608 75.5280882,86.2691351 75.2945624,86.0614934 C74.6201537,85.3870847 74.8536794,80.846559 74.8536794,79.2642158 C75.3204465,78.096587 75.7613295,77.1886525 77.1104314,76.9551268 Z M77.8110086,78.5377544 C77.8110086,78.3042287 77.5777673,78.3042287 77.5777673,78.3042287 C77.1365999,78.0709874 76.9030741,78.3042287 76.6695484,78.7453961 C76.4363071,79.4198048 76.6695484,81.2362426 76.6695484,82.3777029 C76.6695484,82.8188703 76.6695484,83.2856373 76.6695484,83.7268048 C76.6695484,84.4012135 76.6695484,84.8685494 76.9030741,85.5429581 C76.9030741,85.7764839 77.1365999,85.7764839 77.3442416,85.7764839 C78.0186503,85.7764839 78.0186503,85.3353165 78.0186503,84.8685494 C78.252176,84.427382 78.252176,83.7268048 78.252176,83.052396 C78.252176,82.1444616 78.252176,81.0027169 78.252176,80.0947824 C78.252176,79.8612567 78.252176,79.653615 78.252176,79.1868479 C77.8110086,78.7712802 77.8110086,78.5377544 77.8110086,78.5377544 Z" id="Shape"></path>
                <path d="M73.7116503,80.8209593 C73.2704829,80.8209593 72.8037159,80.8209593 72.5699057,80.587718 C72.3366643,80.3541923 72.3366643,79.9130248 72.3366643,79.6794991 C72.3366643,79.2383317 72.5699057,78.5380389 71.8954969,78.3306816 C71.2208038,78.0971559 70.9875625,79.0050904 70.9875625,79.4721419 C70.9875625,80.146835 70.9875625,81.7294627 70.9875625,82.8709229 C70.9875625,83.7788574 70.7540367,85.1282437 71.4284454,85.361485 C72.7775473,85.8026524 72.1031386,83.7791418 72.5699057,82.8709229 C72.8034314,82.8709229 73.4778401,82.8709229 73.7116503,82.8709229 C73.9451761,84.0126676 73.9451761,85.8282521 73.2704829,86.2694195 C72.3625484,87.177354 70.3128693,86.7105869 69.8717019,85.8282521 C69.6381761,85.5950108 69.6381761,85.1538434 69.6381761,84.6867919 C69.4046504,82.6371127 69.8717019,79.7053832 69.8717019,78.0968715 C70.3128693,76.9551268 71.4543295,76.7477696 72.5957898,76.9551268 C72.8293155,76.9551268 73.0369572,77.1886525 73.2704829,77.3962942 C73.5040087,77.6298199 73.7116503,77.8374616 73.7116503,78.0709874 C73.7116503,78.3042287 73.7116503,78.7453961 73.7116503,78.9789218 C73.9454605,79.0048059 73.7116503,80.8209593 73.7116503,80.8209593 Z" id="Shape"></path>
                <path d="M42.4228971,80.1203821 C42.1893713,80.1203821 41.5146782,80.3539078 41.5146782,80.1203821 C41.2811524,79.6792147 41.7482039,78.7712802 41.2811524,78.5380389 C39.9320505,77.8633457 39.9320505,79.6794991 40.6064593,80.587718 C41.2811524,81.4956525 42.6561384,82.6371127 42.6561384,84.2200248 C42.6561384,85.361485 42.4226126,86.9441127 40.839985,86.9441127 C39.0238316,86.9441127 39.0238316,84.8944335 39.2573574,83.5453316 C39.4908831,83.5453316 39.9320505,83.3118059 40.3988176,83.5453316 C40.6323434,84.2200248 40.1652918,85.5950108 41.0735108,85.5950108 C41.5143937,85.361485 41.5143937,84.4532661 41.5143937,84.0126676 C41.5143937,83.7791418 41.280868,83.3379744 41.0735108,83.1047331 C40.6323434,82.1965142 39.4908831,81.2882953 39.2573574,80.6138865 C39.0238316,79.7059521 39.2573574,78.3565657 39.6985248,77.8897987 C40.1394077,77.4486313 41.5143937,77.2151055 42.4226126,77.4486313 C42.6564228,77.6298199 42.6564228,79.2121631 42.4228971,80.1203821 Z" id="Shape"></path>
                <path d="M44.9134592,77.3962942 C45.146985,78.3042287 44.9134592,79.4459733 44.9134592,80.7950752 C44.9134592,82.1441771 44.6799335,83.5191631 44.9134592,84.427382 C44.9134592,85.1017907 45.3543422,86.0097252 46.2625611,85.5691267 C46.7037285,84.427382 46.4960868,83.0782801 46.4960868,81.4959369 C46.4960868,80.146835 46.4960868,78.5383233 46.4960868,77.4227472 C46.7296126,77.1892214 47.4040213,77.1892214 47.6375471,77.4227472 C47.6375471,79.0050904 47.6375471,80.5880025 47.6375471,82.4038714 C47.6375471,83.5456161 47.8710728,84.894718 47.4040213,86.0364626 C46.9628539,87.1779229 44.9134592,87.3852801 44.0052403,86.4773456 C43.7717145,86.0364626 43.5640729,85.1285282 43.3305471,84.2203092 C43.3305471,83.3120903 43.3305471,81.9629884 43.3305471,80.5880025 C43.3305471,79.4462578 43.0970214,77.6303888 43.7717145,77.4227472 C44.2390505,77.1886525 44.6799335,77.1886525 44.9134592,77.3962942 Z" id="Shape"></path>
                <path d="M63.0485402,77.3962942 C63.4897076,78.3042287 63.7232333,79.4459733 64.1900004,80.3539078 C64.6311678,79.4459733 65.0979349,78.5377544 65.3314606,77.3962942 C65.5649864,77.3962942 66.2396795,77.1630529 66.4732053,77.3962942 C66.4732053,78.0709874 66.0320379,78.9789218 65.7985121,79.653615 C65.5649864,80.3283082 64.8902932,81.2362426 64.8902932,81.9109358 C64.6567675,83.493279 65.3314606,85.0761911 64.8902932,86.6847028 C64.6567675,86.6847028 64.2158845,86.6847028 63.748833,86.6847028 C63.748833,85.3356009 63.748833,83.9603305 63.748833,82.8188703 C63.748833,82.5853445 63.748833,82.1444616 63.748833,81.9109358 C63.748833,81.4697684 63.3076656,81.0030013 63.3076656,80.7691911 C63.0741398,80.3280237 63.0741398,79.8612567 62.8664982,79.4200892 C62.6329724,78.7456805 62.1920894,78.278629 62.4256152,77.3706945 C62.1406057,77.1886525 62.6076572,77.3962942 63.0485402,77.3962942 Z" id="Shape"></path>
                <path d="M84.8415276,77.1886525 C85.5162207,77.1886525 85.9832722,77.1886525 86.6579654,77.1886525 C87.5658999,77.1886525 88.0070673,77.4221783 88.2403086,78.3303972 C88.4738344,79.0048059 88.4738344,79.9127404 88.4738344,80.8209593 C88.4738344,81.0544851 88.2403086,81.4956525 88.0326669,81.962704 C88.4738344,82.1959453 88.2659083,82.8706385 88.4738344,83.7788574 C88.4738344,84.9203176 88.9147173,86.5029453 87.7991412,86.9441127 C87.1247325,87.177354 85.7497465,86.9441127 84.8415276,86.9441127 C84.6082863,83.7524044 84.6082863,80.3539078 84.8415276,77.1886525 C84.8415276,77.3962942 84.8415276,77.1886525 84.8415276,77.1886525 Z M86.1911983,78.3042287 C86.1911983,79.2121631 86.1911983,80.1203821 86.1911983,81.2618423 C86.4244396,81.2618423 86.6323657,81.2618423 86.8656071,81.2618423 C87.0991328,81.2618423 87.3067745,81.0283165 87.3067745,80.5874336 C87.3067745,79.9127404 87.5400158,79.0048059 87.0732487,78.5377544 C86.6579654,78.5377544 86.4244396,78.3042287 86.1911983,78.3042287 Z M87.3323741,82.6112286 C87.3323741,82.6112286 87.3323741,82.3777029 87.0991328,82.3777029 C86.8656071,82.3777029 86.1911983,81.9365355 86.1911983,82.3777029 C86.1911983,83.2856373 86.1911983,84.427382 86.1911983,85.3353165 C86.4244396,85.5688422 87.0991328,85.3353165 87.3326586,85.3353165 C87.3326586,85.3353165 87.3326586,83.9862146 87.3326586,83.7526889 C87.3323741,83.5191631 87.5661843,83.0779957 87.3323741,82.6112286 Z" id="Shape"></path>
                <path d="M93.6887688,82.1700612 C94.3634619,82.6112286 93.6887688,85.5688422 94.3634619,86.7103025 C93.9222945,86.9438282 93.2217173,86.7103025 92.7808343,86.9438282 C92.3396669,85.8020836 93.0143601,83.7785729 92.547593,82.6368283 C92.3140672,82.6368283 92.1064256,82.6368283 91.8728998,82.6368283 C91.6396585,83.7785729 91.8728998,85.3609161 91.8728998,86.710018 C91.4317324,86.710018 90.7314396,86.710018 90.2905566,86.710018 C90.2905566,83.7524044 90.0570309,80.3536234 90.5240824,77.6295355 C91.8728998,77.3960098 94.1563892,77.1883681 94.3896305,78.53747 C94.3634619,79.4459733 94.1299362,81.4956525 93.6887688,82.1700612 Z M91.6393741,78.5377544 C91.6393741,79.6792147 91.6393741,80.5874336 91.6393741,81.495368 C91.8726154,81.495368 92.5473086,81.495368 92.5473086,81.2618423 C92.5473086,81.0283165 92.5473086,80.8206749 92.5473086,80.5874336 C92.5473086,80.3539078 92.5473086,80.1462662 92.5473086,79.9127404 C92.5473086,79.6792147 92.5473086,79.471573 92.5473086,79.0048059 C92.5473086,78.7712802 92.5473086,78.5636385 92.5473086,78.3303972 C92.5473086,78.3042287 91.8726154,78.5377544 91.6393741,78.5377544 Z" id="Shape"></path>
                <path d="M105.700981,86.7103025 C105.467455,86.0358938 105.467455,85.1279593 105.467455,84.4529817 C105.467455,82.1956609 105.467455,79.471573 105.700981,77.4221783 C106.842726,77.1886525 108.425069,77.1886525 108.866236,77.8630613 C109.099762,78.096587 109.099762,78.7709957 109.099762,79.0048059 C109.099762,79.4459733 109.099762,80.1465506 109.099762,80.5874336 C109.099762,81.7288938 109.099762,82.8444699 109.099762,83.9859302 C109.099762,84.6606233 109.099762,85.3350321 109.099762,85.8020836 C108.866236,87.1514699 106.842726,86.9438282 105.700981,86.7103025 Z M106.842726,78.5377544 C106.842726,80.7950752 106.842726,83.311237 106.842726,85.3350321 C107.283608,85.3350321 107.75066,85.3350321 107.984186,85.3350321 C107.750944,83.2853529 108.217711,80.561265 107.750944,78.7451116 C107.75066,78.5377544 107.075967,78.7712802 106.842726,78.5377544 Z" id="Shape"></path>
                <path d="M55.5765694,82.4033025 C55.3430436,83.7524044 55.5765694,85.3609161 55.3430436,86.7103025 C55.1095179,86.9438282 54.4351091,86.9438282 54.2015834,86.7103025 C53.9680576,83.9862146 53.9680576,80.3539078 54.2015834,77.6298199 C54.6427508,77.6298199 56.9256713,77.1886525 57.3665542,77.6298199 C57.60008,77.8630613 57.8077216,78.5377544 57.8077216,78.5377544 C58.0412474,79.4456889 58.0412474,81.7030097 57.3665542,82.1700612 C56.9256713,82.6112286 56.2512625,82.4033025 55.5765694,82.4033025 Z M56.4847883,78.7712802 C56.0436209,78.7712802 55.5768538,78.7712802 55.3433281,78.7712802 C55.3433281,79.4459733 55.3433281,80.3539078 55.3433281,81.028601 C56.0180212,81.028601 56.2512625,81.028601 56.6924299,80.7953597 C56.7180296,80.1203821 56.9256713,79.2121631 56.4847883,78.7712802 Z" id="Shape"></path>
                <path d="M60.3503364,77.3962942 C60.5838621,79.653615 60.3503364,82.6112286 60.5838621,85.1017907 C61.0247451,85.1017907 62.1664898,84.8685494 62.6335413,85.3353165 C62.6335413,85.7764839 62.6335413,86.4767767 62.6335413,86.6844184 C61.7256068,86.6844184 60.1429792,86.9176597 59.468286,86.4508926 C59.468286,83.493279 59.2347603,80.094498 59.7018118,77.3704101 C59.6497591,77.3962942 60.1168106,77.3962942 60.3503364,77.3962942 Z" id="Shape"></path>
                <path d="M97.3210756,77.3962942 C97.5543169,77.3962942 97.5543169,78.7453961 97.5543169,78.9789218 C97.5543169,79.6533306 97.7878426,80.561265 97.9954843,81.2362426 C98.22901,81.9106514 98.4366517,82.5850601 98.4366517,83.2856373 C98.669893,83.9600461 98.669893,84.6347392 98.669893,85.1017907 C98.669893,85.5429581 99.1110604,86.2435354 98.9034188,86.6844184 C98.4622514,86.6844184 97.9954843,86.6844184 97.7616741,86.4508926 C97.7616741,85.7764839 97.5281483,85.1017907 97.5281483,84.6347392 C97.294907,84.4012135 96.6202139,84.6347392 96.1793309,84.6347392 C96.1793309,85.3094324 96.1793309,86.2173669 95.7381635,86.6844184 C95.5046377,86.6844184 94.830229,86.6844184 94.5964188,86.6844184 C94.8299446,83.7268048 95.271112,80.3277393 95.9455207,77.3962942 C95.9455207,77.3962942 95.9455207,77.1630529 96.1790465,77.1630529 C96.6204983,77.3962942 96.8540241,77.3962942 97.3210756,77.3962942 Z M96.4128567,83.3115214 C96.6463824,83.3115214 97.0875498,83.3115214 97.3210756,83.3115214 C97.3210756,82.403587 97.0875498,81.4956525 96.8799082,80.587718 C96.6204983,81.4956525 96.6204983,82.4033025 96.4128567,83.3115214 Z" id="Shape"></path>
                <path d="M104.118353,77.6298199 C104.118353,78.9789218 104.118353,80.5874336 104.118353,82.4033025 C104.118353,83.9859302 104.351879,85.8020836 103.885112,86.9438282 C103.651586,86.9438282 102.977177,86.9438282 102.53601,86.7103025 C102.302769,85.1279593 101.628076,83.3115214 101.186908,81.7288938 C100.953667,83.311237 101.420434,85.1276748 101.186908,86.9438282 C100.746025,87.1770695 100.045163,86.9438282 99.8378062,86.7103025 C99.6045649,83.9862146 99.8378062,80.3539078 99.8378062,77.6298199 C100.278974,77.6298199 100.746025,77.6298199 101.186908,77.6298199 C101.861601,78.9789218 102.53601,80.5874336 102.769536,82.4033025 C103.002777,81.0544851 102.53601,79.0048059 103.002777,77.6298199 C103.210419,77.3962942 103.443944,77.3962942 104.118353,77.6298199 Z" id="Shape"></path>
                <path d="M49.4537005,77.3962942 C50.5954451,77.6298199 51.5033796,76.9551268 52.4113141,77.6298199 C52.8524815,77.8630613 53.319533,81.4956525 52.8524815,82.1700612 C52.4113141,82.8444699 51.5033796,82.6112286 50.8028024,82.6112286 C50.5692766,83.7526889 50.8028024,85.5688422 50.5692766,86.6844184 C50.3357508,86.6844184 49.6610577,86.6844184 49.4275319,86.4508926 C49.2201747,83.5191631 49.2201747,80.5874336 49.4537005,77.3962942 C49.4537005,77.6298199 49.4537005,77.3962942 49.4537005,77.3962942 Z M50.5954451,81.0283165 C51.0363281,81.0283165 51.5033796,81.0283165 51.7369054,80.7950752 C51.7369054,80.1203821 51.7369054,79.4459733 51.5033796,78.7453961 C51.2698539,78.5118703 50.8289709,78.5118703 50.3619194,78.5118703 C50.5954451,79.4459733 50.5954451,80.3539078 50.5954451,81.0283165 Z" id="Shape"></path>
                <path d="M81.2095052,84.8941491 C81.2095052,85.5688422 81.443031,86.4764923 80.9762639,86.7103025 C80.5094968,86.9441127 80.0683294,86.7103025 79.8345192,86.4767767 C79.8345192,85.802368 79.8345192,85.1279593 79.8345192,84.6609078 C80.3012863,84.4270976 80.7424537,84.6609078 81.2095052,84.8941491 Z" id="Shape"></path>
                <path d="M78.0183658,94.6493248 C78.4595333,93.5075801 77.3439571,93.0666971 76.669264,92.5996456 C70.7799208,91.9252369 71.8957814,99.3969233 76.228381,99.630449 C78.0445344,99.630449 80.0939291,98.722799 81.9100825,98.0481058 C82.3512499,97.8148645 83.2591844,97.6069384 83.7262359,98.0481058 C84.1674033,98.722799 83.2850685,99.3972077 83.4929946,99.630449 C84.841812,100.071901 86.4506082,98.0481058 87.7997101,98.2816316 C88.4744032,98.2816316 89.3823377,99.189566 88.7076445,100.097785 C103.677755,100.097785 118.206413,100.097785 133.617406,100.097785 C134.292099,100.097785 136.107968,99.8645436 136.341494,100.331311 C136.57502,101.239245 134.084173,100.772194 133.384165,100.772194 C93.2484547,100.772194 51.7371898,100.772194 10.6673768,100.772194 C9.99268361,100.772194 7.5021215,101.005719 7.70976315,100.331311 C7.70976315,99.8901433 9.7594423,100.097785 10.2003253,100.097785 C25.1701509,100.097785 39.9067353,100.097785 54.6689193,100.097785 C54.6689193,99.6566175 53.9945106,99.1898505 54.4353936,98.5151573 C56.6927144,97.8407486 58.0677004,99.656902 59.8835693,99.656902 C60.3247367,98.9824933 58.7421091,98.7489675 59.2091606,97.8407486 C59.6500436,96.9328141 61.9332485,98.7486831 62.6079416,98.9824933 C63.9570435,99.4236607 66.0064382,99.8904277 67.5890659,99.4236607 C69.638745,98.9824933 70.9878469,96.466047 70.0799124,94.4419676 C69.8463867,93.7675588 68.9381678,92.8596244 67.8225916,92.6258142 C66.4734897,92.6258142 64.864978,93.3005073 65.0982193,94.8834194 C66.239964,94.8834194 66.239964,93.7416747 67.3555401,93.7416747 C69.4052193,93.7416747 69.4052193,96.6990039 67.5890659,97.3739815 C65.3317451,98.0483902 63.7235178,95.7916383 64.1902848,93.9752005 C64.6314522,92.6260986 66.9146571,91.4846384 68.7305261,92.1590471 C69.6384606,92.3925729 70.3131537,93.3007918 70.5466795,93.9752005 C71.6881397,96.466047 69.8719863,98.5157262 68.2893587,100.33188 C69.8719863,100.098354 71.6878553,100.33188 73.5040087,100.33188 C72.5960742,98.7492519 70.7799208,96.0248796 72.1551912,93.7419592 C72.5960742,92.8340247 73.7375344,92.1593315 75.1125204,91.9258058 C76.0204549,91.9258058 77.603367,91.9258058 78.2777757,92.6002145 C80.0939291,94.4163679 78.2777757,97.8151489 76.0204549,97.3739815 C74.2043015,97.1404558 73.7634185,93.7416747 76.0204549,93.7416747 C76.9027897,93.9746316 77.3439571,94.415799 78.0183658,94.6493248 Z" id="Shape"></path>
                <path d="M90.056462,105.753318 C90.7311552,108.918573 91.4055639,111.876187 92.1061411,114.8338 C91.431448,114.8338 90.5237979,114.8338 89.615579,114.8338 C89.3820533,114.392917 89.3820533,113.69234 89.3820533,113.251457 C89.1485275,113.018216 88.4741188,113.251457 88.0329514,113.251457 C87.7994256,113.692625 87.7994256,114.393202 87.591784,115.067611 C87.1506166,115.067611 85.7756306,115.067611 85.3344632,114.834085 C86.0091563,111.66883 86.4762078,108.7115 87.3841423,105.753602 C88.240593,105.753318 89.5896949,105.545676 90.056462,105.753318 Z M88.4741188,111.435304 C88.7073601,111.435304 88.7073601,111.435304 88.9150018,111.435304 C88.9150018,110.994136 88.9150018,110.293559 88.6817605,110.086202 C88.681476,110.527085 88.4741188,110.760326 88.4741188,111.435304 Z" id="Shape"></path>
                <path d="M83.9338775,105.986844 C83.9338775,108.944457 84.1671188,112.576764 83.9338775,115.067326 C83.2591844,115.067326 82.5847756,115.067326 82.1177241,114.8338 C81.8841984,113.484983 82.1177241,112.109997 82.1177241,110.760611 C81.6765567,112.109997 81.2095052,113.718224 80.7683378,114.8338 C80.3274548,115.067326 79.6268776,114.8338 78.9524689,114.8338 C78.2777757,113.69234 78.0445344,112.343238 77.8107242,111.201494 C77.5774829,112.343238 77.8107242,113.925582 77.5774829,114.600275 C77.1363155,114.833516 76.228381,114.833516 75.761045,114.600275 C75.761045,111.876187 75.5278037,108.24388 75.761045,105.753033 C76.4357382,105.519792 77.5774829,105.753033 78.2518916,105.753033 C78.9263003,107.102135 79.1598261,109.151815 79.8342348,110.5268 C80.508928,109.177699 80.7421693,107.361545 81.4168624,105.753033 C82.1177241,105.753318 83.0259431,105.753318 83.9338775,105.986844 Z" id="Shape"></path>
                <path d="M41.9558456,105.986844 C41.9558456,106.428011 41.9558456,107.128588 41.9558456,107.802997 C41.5146782,107.802997 41.0479111,107.802997 40.6067437,107.802997 C40.1658607,110.293559 40.6067437,112.343238 40.3732179,114.8338 C39.6988092,114.8338 39.0241161,114.8338 38.1161816,114.8338 C37.8826558,112.784406 38.1161816,110.060318 38.1161816,107.802997 C37.6750142,107.569471 37.2079627,107.802997 36.3000282,107.569471 C36.0665024,107.128304 36.3000282,106.428011 36.3000282,105.987128 C38.557349,105.986844 40.1396922,105.986844 41.9558456,105.986844 Z" id="Shape"></path>
                <path d="M58.0674159,105.986844 C59.2088762,106.220085 61.0247451,105.753318 61.932964,105.986844 C64.4235261,106.894778 63.0744243,110.527085 63.5153072,113.69234 C63.0744243,115.508494 59.6497591,115.041442 57.8333213,114.8338 C57.8336057,112.109997 57.8336057,108.944742 58.0674159,105.986844 C57.8336057,105.986844 58.0674159,105.986844 58.0674159,105.986844 Z M59.8832849,107.802997 C59.8832849,109.61915 59.8832849,111.435304 59.8832849,113.251173 C60.1168106,113.251173 61.0247451,113.251173 61.2323868,113.017931 C61.6732697,111.668545 61.6732697,108.944742 61.2323868,107.802997 C61.0247451,107.802997 60.3503364,107.802997 59.8832849,107.802997 Z" id="Shape"></path>
                <path d="M106.842726,105.986844 C106.401558,107.569187 105.493624,108.710932 104.793046,110.060033 C105.467455,112.109713 106.842726,113.017647 107.75066,114.833516 C106.608915,114.833516 105.700981,115.067042 104.58512,114.833516 C104.144237,114.159107 103.44366,113.251173 103.002777,112.57648 C102.769536,113.250888 103.002777,114.392633 102.769536,114.833516 C102.094843,114.833516 101.186908,114.833516 100.512215,114.833516 C100.278689,112.109713 100.278689,108.710932 100.512215,105.753033 C101.186624,105.753033 102.094558,105.753033 102.769536,105.753033 C103.002777,106.427727 102.769536,107.335661 102.769536,108.010354 C103.210419,107.10242 103.67747,106.428011 104.351879,105.519792 C105.260098,105.986844 106.168032,105.986844 106.842726,105.986844 Z" id="Shape"></path>
                <path d="M47.8710728,110.060318 C49.2201747,110.734727 48.3122402,113.458814 49.2201747,114.600559 C48.545766,114.8338 47.17078,114.8338 46.4960868,114.600559 C45.8213937,113.692625 46.9372543,110.734727 45.3543422,110.734727 C45.1208164,111.876471 45.3543422,113.458814 45.1208164,114.600559 C44.679649,114.600559 43.7717145,114.8338 43.0711373,114.600559 C42.8376115,111.876471 43.0711373,108.47769 43.0711373,105.987128 C44.6537649,105.987128 47.3778528,105.312719 48.0525459,106.895063 C48.7792917,107.802997 48.545766,109.61915 47.8710728,110.060318 Z M45.3546266,109.38534 C45.795794,109.38534 46.0293198,109.38534 46.2628455,109.152099 C46.2628455,108.710932 46.2628455,108.244164 46.0293198,107.802997 C45.795794,107.569471 45.3546266,107.802997 45.1213853,107.569471 C45.3546266,108.244164 45.3546266,108.710932 45.3546266,109.38534 Z" id="Shape"></path>
                <path d="M97.9957687,110.060318 C99.3448706,110.734727 98.4369361,113.458814 99.3448706,114.600559 C98.6701775,114.8338 97.2951915,114.8338 96.6204983,114.600559 C95.9460896,113.692625 97.0616657,110.734727 95.4790381,110.734727 C95.2455123,111.876471 95.4790381,113.458814 95.2455123,114.600559 C94.8046294,114.600559 93.8966949,114.8338 93.1961176,114.600559 C92.9625919,111.876471 93.1961176,108.47769 93.1961176,105.987128 C94.7784608,105.987128 97.5028331,105.312719 98.1772419,106.895063 C98.9037032,107.802997 98.6701775,109.61915 97.9957687,110.060318 Z M95.5049222,109.38534 C95.9460896,109.38534 96.1796153,109.38534 96.4128567,109.152099 C96.4128567,108.710932 96.4128567,108.244164 96.1796153,107.802997 C95.9460896,107.569471 95.5049222,107.802997 95.2716809,107.569471 C95.5049222,108.244164 95.5049222,108.710932 95.5049222,109.38534 Z" id="Shape"></path>
                <path d="M54.4351091,105.986844 C55.1098023,107.128588 55.1098023,108.710932 55.5765694,110.293559 C55.8100951,111.876187 56.4845038,113.251173 56.7180296,114.600559 C56.2768622,114.8338 55.3689277,114.600559 54.4609932,114.600559 C54.2274675,113.925866 54.0198258,113.251457 53.7863001,112.55088 C53.5527743,112.317354 53.1116069,112.55088 52.6445554,112.55088 C52.4110297,113.225289 52.2036724,113.899982 52.4110297,114.600559 C51.5030952,114.600559 50.5951607,114.600559 49.9204675,114.600559 C50.3613505,111.876471 51.0619278,108.711216 51.9701467,105.987128 C52.6189557,106.220369 53.5271747,105.986844 54.4351091,105.986844 Z M52.8524815,110.968252 C53.0860073,110.968252 53.2933645,110.968252 53.2933645,110.968252 C53.0598387,110.527085 53.0598387,110.060318 53.0598387,109.61915 C53.0860073,110.060318 53.0860073,110.527085 52.8524815,110.968252 Z" id="Shape"></path>
                <path d="M136.107684,119.140516 C136.107684,120.282261 134.525341,119.814925 133.38388,119.814925 C129.985099,119.814925 126.586318,119.814925 123.187537,119.814925 C119.55523,119.814925 115.923208,119.581683 112.08326,119.814925 C105.052456,120.04845 91.4317324,119.581683 82.1436082,119.814925 C82.1436082,120.256092 82.5847756,120.723144 82.377134,121.164311 C81.9359666,122.305771 79.8862874,121.397552 78.978353,120.930501 C78.5371855,122.746939 77.1621996,121.164311 76.0210238,120.697259 C75.3463306,120.463734 74.4383961,120.022851 73.5301772,120.256092 C72.6222427,120.489618 71.9475496,122.305771 72.6222427,123.213706 C73.0634101,123.888114 74.6719219,124.35545 75.1128049,122.98018 C74.6719219,122.746939 74.2048704,123.654873 73.5304617,123.213706 C72.6225272,122.539297 73.5304617,121.631363 73.9716291,121.631363 C74.6460378,121.397837 75.7877825,121.864604 75.7877825,122.539297 C76.4621912,124.796618 73.0636946,125.263385 72.1554757,124.12164 C71.013731,122.979896 71.9219499,120.723144 73.0634101,119.81464 C72.1554757,119.81464 71.013731,119.81464 70.1057965,119.81464 C70.3393223,120.722859 71.2472568,121.164027 71.2472568,122.071961 C71.4807825,123.888114 69.8981549,125.029575 68.2896431,124.796333 C67.1481829,124.562523 66.7070155,122.979896 67.3817087,122.071961 C68.0564018,121.397552 70.1057965,121.397552 69.8722708,122.746654 C69.638745,123.888114 68.5231689,123.187537 67.8225916,123.421063 C68.2634746,124.562523 70.3131537,123.86223 70.3131537,122.746654 C70.5466795,121.83872 69.6384606,120.696975 68.9640519,120.489333 C67.1478985,120.048166 66.0064382,122.746654 64.4238106,121.838435 C64.1902848,121.60491 63.9829276,121.397268 63.9829276,120.930216 C63.3082345,121.838435 59.9097379,121.838435 61.2588397,119.788756 C44.4728607,119.788756 27.0124729,119.788756 10.2262094,119.788756 C9.5515162,119.788756 7.26859574,120.022282 7.06095409,119.55523 C6.82742833,118.880822 8.64358173,119.114347 9.31827489,119.114347 C16.1155525,118.67318 23.1466403,119.114347 29.7365608,119.114347 C49.4801534,119.114347 68.5234533,119.114347 88.267046,119.114347 C93.7152218,119.114347 100.512784,119.114347 103.470113,119.114347 C106.194485,119.114347 111.409135,119.114347 116.390544,119.114347 C122.07253,119.114347 127.961589,119.114347 133.617406,119.114347 C134.732698,118.90699 135.640632,118.699633 136.107684,119.140516 Z" id="Shape"></path>
                <path d="M69.8719863,105.986844 C70.1055121,106.428011 70.1055121,107.569187 69.8719863,108.036523 C69.4311034,108.036523 68.5228844,108.269764 67.6146655,108.036523 C67.6146655,108.477406 67.6146655,108.944457 67.6146655,109.38534 C68.2893587,109.38534 69.1972932,109.152099 69.8719863,109.38534 C70.1055121,109.826508 70.1055121,110.734442 69.8719863,111.201494 C69.1972932,111.435019 68.5228844,111.435019 67.6146655,111.435019 C67.3811398,111.876187 67.6146655,112.576764 67.6146655,113.017647 C68.2893587,113.017647 69.1972932,113.017647 69.8719863,113.017647 C70.1055121,113.45853 70.1055121,114.366464 69.8719863,114.833516 C68.7302417,115.067042 66.9143727,114.833516 65.5652708,115.067042 C65.3317451,112.342954 65.3317451,108.710647 65.5652708,105.986559 C66.9143727,105.753318 68.7302417,105.753318 69.8719863,105.986844 Z" id="Shape"></path>
            </g>
        </g>
    </g>
</svg>